<svg width="27" height="37" viewBox="0 0 27 37" fill="none" xmlns="http://www.w3.org/2000/svg">
<path d="M13.5 31.0417C9.28956 27.9361 6.14638 24.9201 4.07044 21.9938C1.99569 19.0674 0.958313 16.2007 0.958313 13.3938C0.958313 11.2736 1.33934 9.41447 2.1014 7.8163C2.86226 6.21933 3.83991 4.88334 5.03435 3.80834C6.2288 2.73334 7.57255 1.92709 9.0656 1.38959C10.5587 0.852094 12.0368 0.583344 13.5 0.583344C14.9632 0.583344 16.4413 0.852094 17.9344 1.38959C19.4274 1.92709 20.7712 2.73334 21.9656 3.80834C23.16 4.88334 24.1383 6.21933 24.9004 7.8163C25.6612 9.41447 26.0416 11.2736 26.0416 13.3938C26.0416 16.2007 25.0037 19.0674 22.9277 21.9938C20.853 24.9201 17.7104 27.9361 13.5 31.0417ZM13.5 16.7083C14.4854 16.7083 15.3293 16.3572 16.0316 15.6548C16.7327 14.9537 17.0833 14.1104 17.0833 13.125C17.0833 12.1396 16.7327 11.2957 16.0316 10.5934C15.3293 9.89225 14.4854 9.54168 13.5 9.54168C12.5146 9.54168 11.6713 9.89225 10.9701 10.5934C10.2678 11.2957 9.91665 12.1396 9.91665 13.125C9.91665 14.1104 10.2678 14.9537 10.9701 15.6548C11.6713 16.3572 12.5146 16.7083 13.5 16.7083ZM0.958313 36.4167V32.8333H26.0416V36.4167H0.958313Z" fill="#464646"/>
</svg>
