<svg width="33" height="33" viewBox="0 0 33 33" fill="none" xmlns="http://www.w3.org/2000/svg">
<path d="M6.86083 14.3321C9.44083 19.4025 13.5975 23.5412 18.6679 26.1392L22.6096 22.1975C23.0933 21.7138 23.81 21.5525 24.4371 21.7675C26.4438 22.4304 28.6117 22.7887 30.8333 22.7887C31.8187 22.7887 32.625 23.595 32.625 24.5804V30.8333C32.625 31.8187 31.8187 32.625 30.8333 32.625C14.0096 32.625 0.375 18.9904 0.375 2.16667C0.375 1.18125 1.18125 0.375 2.16667 0.375H8.4375C9.42292 0.375 10.2292 1.18125 10.2292 2.16667C10.2292 4.40625 10.5875 6.55625 11.2504 8.56292C11.4475 9.19 11.3042 9.88875 10.8025 10.3904L6.86083 14.3321Z" fill="#464646"/>
</svg>
